<svg width="101" height="16" viewBox="0 0 101 16" fill="none" xmlns="http://www.w3.org/2000/svg">
<g filter="url(#filter0_i_343_36)">
<path d="M10.8221 4.06C10.8221 5.02 10.4821 5.79333 9.80211 6.38C9.12211 6.96667 8.25544 7.33333 7.20211 7.48V7.54C8.50878 7.67333 9.50878 8.04 10.2021 8.64C10.9088 9.22667 11.2621 9.99333 11.2621 10.94C11.2621 12.1933 10.7488 13.22 9.72211 14.02C8.70878 14.8067 7.21544 15.2 5.24211 15.2C4.16211 15.2 3.20211 15.1333 2.36211 15C1.53544 14.8667 0.815443 14.6733 0.202109 14.42L0.202109 11.88C0.615443 12.08 1.08211 12.2533 1.60211 12.4C2.12211 12.5333 2.64878 12.64 3.18211 12.72C3.71544 12.7867 4.20878 12.82 4.66211 12.82C5.92878 12.82 6.84211 12.64 7.40211 12.28C7.97544 11.9067 8.26211 11.3867 8.26211 10.72C8.26211 10.04 7.84878 9.54667 7.02211 9.24C6.19544 8.92 5.08211 8.76 3.68211 8.76H2.34211L2.34211 6.4H3.54211C4.67544 6.4 5.55544 6.32667 6.18211 6.18C6.80878 6.03333 7.24878 5.82 7.50211 5.54C7.75544 5.26 7.88211 4.92667 7.88211 4.54C7.88211 4.04667 7.66211 3.66 7.22211 3.38C6.79544 3.08667 6.14878 2.94 5.28211 2.94C4.54878 2.94 3.85544 3.04667 3.20211 3.26C2.56211 3.47333 1.96211 3.75333 1.40211 4.1L0.0821095 2.08C0.815443 1.6 1.62878 1.22 2.52211 0.94C3.41544 0.659999 4.47544 0.519999 5.70211 0.519999C7.31544 0.519999 8.56878 0.853333 9.46211 1.52C10.3688 2.18667 10.8221 3.03333 10.8221 4.06ZM16.6709 4.08L16.6709 8.28H20.8309L20.8309 4.08H23.8109L23.8109 15H20.8309V10.5H16.6709V15H13.6909L13.6909 4.08L16.6709 4.08ZM31.413 3.86C32.8797 3.86 33.9997 4.18 34.773 4.82C35.5597 5.44667 35.953 6.41333 35.953 7.72V15H33.873L33.293 13.52H33.213C32.7464 14.1067 32.253 14.5333 31.733 14.8C31.213 15.0667 30.4997 15.2 29.593 15.2C28.6197 15.2 27.813 14.92 27.173 14.36C26.533 13.7867 26.213 12.9133 26.213 11.74C26.213 10.58 26.6197 9.72667 27.433 9.18C28.2464 8.62 29.4664 8.31333 31.093 8.26L32.993 8.2V7.72C32.993 7.14667 32.8397 6.72667 32.533 6.46C32.2397 6.19333 31.8264 6.06 31.293 6.06C30.7597 6.06 30.2397 6.14 29.733 6.3C29.2264 6.44667 28.7197 6.63333 28.213 6.86L27.233 4.84C27.8197 4.53333 28.4664 4.29333 29.173 4.12C29.893 3.94667 30.6397 3.86 31.413 3.86ZM31.833 9.98C30.873 10.0067 30.2064 10.18 29.833 10.5C29.4597 10.82 29.273 11.24 29.273 11.76C29.273 12.2133 29.4064 12.54 29.673 12.74C29.9397 12.9267 30.2864 13.02 30.713 13.02C31.353 13.02 31.893 12.8333 32.333 12.46C32.773 12.0733 32.993 11.5333 32.993 10.84V9.94L31.833 9.98ZM41.6234 8.08C41.6234 9.02667 42.0634 9.5 42.9434 9.5C43.5167 9.5 44.05 9.44 44.5434 9.32C45.0367 9.18667 45.53 9.01333 46.0234 8.8V4.08L49.0034 4.08V15H46.0234V10.66C45.5567 10.9133 45.0234 11.1467 44.4234 11.36C43.8234 11.56 43.1434 11.66 42.3834 11.66C41.25 11.66 40.3434 11.3667 39.6634 10.78C38.9834 10.1933 38.6434 9.31333 38.6434 8.14V4.08H41.6234V8.08ZM56.6284 3.88C58.135 3.88 59.3284 4.31333 60.2084 5.18C61.0884 6.03333 61.5284 7.25333 61.5284 8.84V10.28H54.4884C54.515 11.12 54.7617 11.78 55.2284 12.26C55.7084 12.74 56.3684 12.98 57.2084 12.98C57.915 12.98 58.555 12.9133 59.1284 12.78C59.7017 12.6333 60.295 12.4133 60.9084 12.12V14.42C60.375 14.6867 59.8084 14.88 59.2084 15C58.6217 15.1333 57.9084 15.2 57.0684 15.2C55.975 15.2 55.0084 15 54.1684 14.6C53.3284 14.1867 52.6684 13.5667 52.1884 12.74C51.7084 11.9133 51.4684 10.8733 51.4684 9.62C51.4684 8.34 51.6817 7.28 52.1084 6.44C52.5484 5.58667 53.155 4.94667 53.9284 4.52C54.7017 4.09333 55.6017 3.88 56.6284 3.88ZM56.6484 6C56.075 6 55.595 6.18667 55.2084 6.56C54.835 6.93333 54.615 7.51333 54.5484 8.3H58.7284C58.715 7.63333 58.5417 7.08667 58.2084 6.66C57.875 6.22 57.355 6 56.6484 6ZM66.9248 4.08V8.28L71.0848 8.28V4.08H74.0648V15H71.0848V10.5H66.9248V15H63.9448V4.08H66.9248ZM80.067 8.4C80.067 8.62667 80.0536 8.90667 80.027 9.24C80.0136 9.57333 79.9936 9.91333 79.967 10.26C79.9536 10.6067 79.9336 10.9133 79.907 11.18C79.8803 11.4467 79.8603 11.6333 79.847 11.74L84.887 4.08H88.467V15H85.587V10.64C85.587 10.28 85.6003 9.88667 85.627 9.46C85.6536 9.02 85.6803 8.61333 85.707 8.24C85.747 7.85333 85.7736 7.56 85.787 7.36L80.767 15H77.187V4.08H80.067V8.4ZM96.0815 3.88C97.5882 3.88 98.7815 4.31333 99.6615 5.18C100.541 6.03333 100.981 7.25333 100.981 8.84V10.28L93.9415 10.28C93.9682 11.12 94.2148 11.78 94.6815 12.26C95.1615 12.74 95.8215 12.98 96.6615 12.98C97.3682 12.98 98.0082 12.9133 98.5815 12.78C99.1548 12.6333 99.7482 12.4133 100.361 12.12V14.42C99.8282 14.6867 99.2615 14.88 98.6615 15C98.0748 15.1333 97.3615 15.2 96.5215 15.2C95.4282 15.2 94.4615 15 93.6215 14.6C92.7815 14.1867 92.1215 13.5667 91.6415 12.74C91.1615 11.9133 90.9215 10.8733 90.9215 9.62C90.9215 8.34 91.1348 7.28 91.5615 6.44C92.0015 5.58667 92.6082 4.94667 93.3815 4.52C94.1548 4.09333 95.0548 3.88 96.0815 3.88ZM96.1015 6C95.5282 6 95.0482 6.18667 94.6615 6.56C94.2882 6.93333 94.0682 7.51333 94.0015 8.3H98.1815C98.1682 7.63333 97.9948 7.08667 97.6615 6.66C97.3282 6.22 96.8082 6 96.1015 6Z" fill="#B0D4E3"/>
</g>
<path d="M9.80211 6.38L9.14888 5.62284L9.14888 5.62284L9.80211 6.38ZM7.20211 7.48L7.0642 6.48955L6.20211 6.60959V7.48H7.20211ZM7.20211 7.54H6.20211L6.20211 8.44315L7.1006 8.53483L7.20211 7.54ZM10.2021 8.64L9.54773 9.39617L9.55548 9.40287L9.56335 9.40941L10.2021 8.64ZM9.72211 14.02L10.3353 14.8099L10.3368 14.8088L9.72211 14.02ZM2.36211 15L2.20288 15.9872L2.20534 15.9876L2.36211 15ZM0.202109 14.42H-0.797891V15.0889L-0.179651 15.3443L0.202109 14.42ZM0.202109 11.88L0.63767 10.9798L-0.797891 10.2852L-0.797891 11.88H0.202109ZM1.60211 12.4L1.33065 13.3624L1.34215 13.3657L1.35373 13.3687L1.60211 12.4ZM3.18211 12.72L3.03377 13.7089L3.0459 13.7108L3.05807 13.7123L3.18211 12.72ZM7.40211 12.28L7.94288 13.1212L7.94778 13.118L7.40211 12.28ZM7.02211 9.24L6.66108 10.1727L6.6743 10.1776L7.02211 9.24ZM2.34211 8.76H1.34211L1.34211 9.76H2.34211L2.34211 8.76ZM2.34211 6.4V5.4H1.34211V6.4H2.34211ZM6.18211 6.18L5.95423 5.20631L5.95422 5.20631L6.18211 6.18ZM7.22211 3.38L6.65558 4.20404L6.67023 4.21411L6.68523 4.22366L7.22211 3.38ZM3.20211 3.26L2.8917 2.30938L2.88588 2.31132L3.20211 3.26ZM1.40211 4.1L0.564994 4.64703L1.09878 5.46388L1.92846 4.95026L1.40211 4.1ZM0.0821095 2.08L-0.46555 1.2433L-1.30162 1.79054L-0.755006 2.62703L0.0821095 2.08ZM2.52211 0.94L2.8212 1.89423L2.8212 1.89423L2.52211 0.94ZM9.46211 1.52L8.86401 2.32145L8.86972 2.32565L9.46211 1.52ZM9.82211 4.06C9.82211 4.75195 9.59204 5.24051 9.14888 5.62284L10.4553 7.13716C11.3722 6.34616 11.8221 5.28805 11.8221 4.06H9.82211ZM9.14888 5.62284C8.63968 6.06215 7.96255 6.36447 7.0642 6.48955L7.34002 8.47044C8.54834 8.3022 9.60454 7.87118 10.4553 7.13716L9.14888 5.62284ZM6.20211 7.48V7.54H8.20211V7.48H6.20211ZM7.1006 8.53483C8.28772 8.65597 9.06378 8.97737 9.54773 9.39617L10.8565 7.88383C9.95377 7.10263 8.72983 6.6907 7.30362 6.54517L7.1006 8.53483ZM9.56335 9.40941C10.0332 9.79946 10.2621 10.2802 10.2621 10.94H12.2621C12.2621 9.70644 11.7844 8.65387 10.8409 7.87059L9.56335 9.40941ZM10.2621 10.94C10.2621 11.8715 9.90185 12.6122 9.10746 13.2312L10.3368 14.8088C11.5957 13.8278 12.2621 12.5152 12.2621 10.94H10.2621ZM9.10889 13.2301C8.34309 13.8246 7.10632 14.2 5.24211 14.2V16.2C7.32457 16.2 9.07446 15.7887 10.3353 14.8099L9.10889 13.2301ZM5.24211 14.2C4.20132 14.2 3.29538 14.1356 2.51888 14.0124L2.20534 15.9876C3.10884 16.131 4.12289 16.2 5.24211 16.2V14.2ZM2.52134 14.0128C1.75215 13.8887 1.10996 13.713 0.58387 13.4957L-0.179651 15.3443C0.520924 15.6336 1.31874 15.8446 2.20288 15.9872L2.52134 14.0128ZM1.20211 14.42L1.20211 11.88H-0.797891L-0.797891 14.42H1.20211ZM-0.233452 12.7802C0.240915 13.0097 0.763813 13.2026 1.33065 13.3624L1.87357 11.4376C1.40041 11.3041 0.98997 11.1503 0.63767 10.9798L-0.233452 12.7802ZM1.35373 13.3687C1.90686 13.5105 2.46692 13.6239 3.03377 13.7089L3.33045 11.7311C2.83063 11.6561 2.33735 11.5562 1.85048 11.4313L1.35373 13.3687ZM3.05807 13.7123C3.62525 13.7832 4.16055 13.82 4.66211 13.82L4.66211 11.82C4.257 11.82 3.80564 11.7902 3.30614 11.7277L3.05807 13.7123ZM4.66211 13.82C5.97452 13.82 7.13174 13.6426 7.94287 13.1212L6.86135 11.4388C6.55247 11.6374 5.88303 11.82 4.66211 11.82L4.66211 13.82ZM7.94778 13.118C8.79553 12.566 9.26211 11.7354 9.26211 10.72H7.26211C7.26211 11.0379 7.15536 11.2474 6.85644 11.442L7.94778 13.118ZM9.26211 10.72C9.26211 10.1595 9.0851 9.63518 8.71863 9.19778C8.36665 8.77767 7.88847 8.4948 7.36992 8.30243L6.6743 10.1776C6.98242 10.2919 7.12424 10.409 7.18559 10.4822C7.23245 10.5381 7.26211 10.6005 7.26211 10.72H9.26211ZM7.3831 8.30743C6.39423 7.92464 5.14233 7.76 3.68211 7.76L3.68211 9.76C5.02189 9.76 5.99666 9.91536 6.66112 10.1726L7.3831 8.30743ZM3.68211 7.76H2.34211L2.34211 9.76H3.68211L3.68211 7.76ZM3.34211 8.76L3.34211 6.4H1.34211L1.34211 8.76H3.34211ZM2.34211 7.4H3.54211V5.4H2.34211L2.34211 7.4ZM3.54211 7.4C4.70359 7.4 5.67279 7.32623 6.40999 7.15369L5.95422 5.20631C5.4381 5.32711 4.64729 5.4 3.54211 5.4V7.4ZM6.40999 7.15369C7.11005 6.98984 7.78775 6.71479 8.24365 6.21091L6.76057 4.86909C6.7098 4.92521 6.5075 5.07682 5.95423 5.20631L6.40999 7.15369ZM8.24365 6.21091C8.66769 5.74224 8.88211 5.16804 8.88211 4.54H6.88211C6.88211 4.68529 6.8432 4.77776 6.76057 4.86909L8.24365 6.21091ZM8.88211 4.54C8.88211 3.68189 8.46759 2.98727 7.75899 2.53634L6.68523 4.22366C6.85663 4.33273 6.88211 4.41144 6.88211 4.54H8.88211ZM7.78864 2.55596C7.11679 2.09406 6.22842 1.94 5.28211 1.94L5.28211 3.94C6.06914 3.94 6.47409 4.07927 6.65558 4.20404L7.78864 2.55596ZM5.28211 1.94C4.45043 1.94 3.65177 2.06121 2.89171 2.30939L3.51251 4.21061C4.05912 4.03212 4.64712 3.94 5.28211 3.94L5.28211 1.94ZM2.88588 2.31132C2.17405 2.54859 1.50333 2.86123 0.875755 3.24973L1.92846 4.95026C2.42089 4.64543 2.95017 4.39807 3.51834 4.20868L2.88588 2.31132ZM2.23923 3.55297L0.919225 1.53297L-0.755006 2.62703L0.564994 4.64703L2.23923 3.55297ZM0.629769 2.9167C1.28098 2.49045 2.00976 2.14855 2.8212 1.89423L2.22302 -0.0142265C1.24779 0.291444 0.349901 0.709548 -0.46555 1.2433L0.629769 2.9167ZM2.8212 1.89423C3.59306 1.6523 4.5473 1.52 5.70211 1.52V-0.480001C4.40358 -0.480001 3.23783 -0.3323 2.22302 -0.0142263L2.8212 1.89423ZM5.70211 1.52C7.19277 1.52 8.20542 1.82994 8.86403 2.32143L10.0602 0.718566C8.93213 -0.123271 7.43812 -0.480001 5.70211 -0.480001V1.52ZM8.86972 2.32565C9.54868 2.82489 9.82211 3.3853 9.82211 4.06H11.8221C11.8221 2.68136 11.1889 1.54844 10.0545 0.714349L8.86972 2.32565ZM16.6709 4.08H17.6709V3.08H16.6709V4.08ZM16.6709 8.28H15.6709V9.28H16.6709V8.28ZM20.8309 8.28V9.28H21.8309V8.28H20.8309ZM20.8309 4.08V3.08H19.8309V4.08H20.8309ZM23.8109 4.08H24.8109V3.08H23.8109V4.08ZM23.8109 15V16H24.8109V15H23.8109ZM20.8309 15H19.8309V16H20.8309V15ZM20.8309 10.5H21.8309V9.5H20.8309V10.5ZM16.6709 10.5V9.5H15.6709V10.5H16.6709ZM16.6709 15V16H17.6709V15H16.6709ZM13.6909 15H12.6909V16H13.6909V15ZM13.6909 4.08V3.08H12.6909V4.08H13.6909ZM15.6709 4.08L15.6709 8.28H17.6709L17.6709 4.08H15.6709ZM16.6709 9.28H20.8309V7.28H16.6709V9.28ZM21.8309 8.28L21.8309 4.08H19.8309L19.8309 8.28H21.8309ZM20.8309 5.08H23.8109L23.8109 3.08H20.8309L20.8309 5.08ZM22.8109 4.08L22.8109 15H24.8109L24.8109 4.08H22.8109ZM23.8109 14H20.8309V16H23.8109V14ZM21.8309 15V10.5H19.8309V15H21.8309ZM20.8309 9.5H16.6709V11.5H20.8309V9.5ZM15.6709 10.5V15H17.6709V10.5H15.6709ZM16.6709 14H13.6909V16H16.6709V14ZM14.6909 15L14.6909 4.08H12.6909L12.6909 15H14.6909ZM13.6909 5.08L16.6709 5.08L16.6709 3.08L13.6909 3.08V5.08ZM34.773 4.82L34.1355 5.59039L34.1427 5.59634L34.15 5.60216L34.773 4.82ZM35.953 15V16H36.953V15H35.953ZM33.873 15L32.942 15.3649L33.1909 16H33.873V15ZM33.293 13.52L34.2241 13.1551L33.9752 12.52H33.293V13.52ZM33.213 13.52V12.52H32.7307L32.4304 12.8975L33.213 13.52ZM31.733 14.8L31.2767 13.9102L31.2767 13.9102L31.733 14.8ZM27.173 14.36L26.5058 15.1049L26.5145 15.1126L27.173 14.36ZM27.433 9.18L27.9909 10.01L28.0001 10.0036L27.433 9.18ZM31.093 8.26L31.0615 7.2605L31.0603 7.26054L31.093 8.26ZM32.993 8.2L33.0246 9.1995L33.993 9.16892V8.2H32.993ZM32.533 6.46L31.8604 7.19994L31.8685 7.20736L31.8769 7.21461L32.533 6.46ZM29.733 6.3L30.0111 7.26056L30.0227 7.25721L30.0342 7.25358L29.733 6.3ZM28.213 6.86L27.3133 7.29649L27.7365 8.1687L28.6214 7.77282L28.213 6.86ZM27.233 4.84L26.7698 3.95377L25.9097 4.40335L26.3333 5.27649L27.233 4.84ZM29.173 4.12L28.939 3.14777L28.9348 3.14879L29.173 4.12ZM31.833 9.98L31.8608 10.9796L31.8675 10.9794L31.833 9.98ZM29.833 10.5L29.1823 9.74074L29.1823 9.74074L29.833 10.5ZM29.673 12.74L29.073 13.54L29.0862 13.5498L29.0996 13.5592L29.673 12.74ZM32.333 12.46L32.98 13.2225L32.9866 13.2169L32.9932 13.2112L32.333 12.46ZM32.993 9.94H33.993V8.90492L32.9586 8.94059L32.993 9.94ZM31.413 4.86C32.7513 4.86 33.6081 5.15393 34.1355 5.59039L35.4106 4.04961C34.3913 3.20607 33.0082 2.86 31.413 2.86V4.86ZM34.15 5.60216C34.6307 5.98513 34.953 6.61919 34.953 7.72H36.953C36.953 6.20747 36.4887 4.9082 35.3961 4.03784L34.15 5.60216ZM34.953 7.72V15H36.953V7.72H34.953ZM35.953 14H33.873V16H35.953V14ZM34.8041 14.6351L34.2241 13.1551L32.362 13.8849L32.942 15.3649L34.8041 14.6351ZM33.293 12.52H33.213V14.52H33.293V12.52ZM32.4304 12.8975C32.0282 13.4031 31.6398 13.724 31.2767 13.9102L32.1894 15.6898C32.8663 15.3427 33.4646 14.8102 33.9956 14.1425L32.4304 12.8975ZM31.2767 13.9102C30.9547 14.0753 30.4202 14.2 29.593 14.2V16.2C30.5792 16.2 31.4714 16.058 32.1894 15.6898L31.2767 13.9102ZM29.593 14.2C28.8247 14.2 28.263 13.985 27.8316 13.6074L26.5145 15.1126C27.3631 15.855 28.4148 16.2 29.593 16.2V14.2ZM27.8403 13.6152C27.4812 13.2935 27.213 12.7374 27.213 11.74H25.213C25.213 13.0893 25.5849 14.2799 26.5058 15.1048L27.8403 13.6152ZM27.213 11.74C27.213 10.8425 27.5077 10.3347 27.9909 10.01L26.8752 8.35005C25.7317 9.11863 25.213 10.3175 25.213 11.74H27.213ZM28.0001 10.0036C28.584 9.60166 29.5789 9.31018 31.1258 9.25946L31.0603 7.26054C29.3539 7.31649 27.9088 7.63834 26.8659 8.35635L28.0001 10.0036ZM31.1246 9.2595L33.0246 9.1995L32.9615 7.2005L31.0615 7.2605L31.1246 9.2595ZM33.993 8.2V7.72H31.993V8.2H33.993ZM33.993 7.72C33.993 6.98029 33.7926 6.23007 33.1892 5.70539L31.8769 7.21461C31.8868 7.22326 31.993 7.31305 31.993 7.72H33.993ZM33.2057 5.72006C32.6726 5.23542 31.9879 5.06 31.293 5.06V7.06C31.6648 7.06 31.8068 7.15124 31.8604 7.19994L33.2057 5.72006ZM31.293 5.06C30.6579 5.06 30.0364 5.15554 29.4319 5.34642L30.0342 7.25358C30.4431 7.12446 30.8615 7.06 31.293 7.06V5.06ZM29.455 5.33944C28.9016 5.49963 28.3514 5.70258 27.8047 5.94718L28.6214 7.77282C29.088 7.56408 29.5512 7.3937 30.0111 7.26056L29.455 5.33944ZM29.1128 6.42351L28.1328 4.40351L26.3333 5.27649L27.3133 7.29649L29.1128 6.42351ZM27.6963 5.72623C28.205 5.46031 28.7751 5.24725 29.4113 5.09121L28.9348 3.14879C28.1576 3.33942 27.4344 3.60635 26.7698 3.95377L27.6963 5.72623ZM29.4071 5.09222C30.0471 4.93814 30.7151 4.86 31.413 4.86V2.86C30.5644 2.86 29.739 2.95519 28.939 3.14778L29.4071 5.09222ZM31.8053 8.98039C30.8026 9.00824 29.832 9.18386 29.1823 9.74074L30.4838 11.2593C30.5808 11.1761 30.9435 11.0051 31.8608 10.9796L31.8053 8.98039ZM29.1823 9.74074C28.5731 10.2628 28.273 10.9672 28.273 11.76H30.273C30.273 11.5128 30.3463 11.3772 30.4838 11.2593L29.1823 9.74074ZM28.273 11.76C28.273 12.4061 28.4708 13.0883 29.073 13.54L30.273 11.94C30.28 11.9452 30.2879 11.9528 30.2944 11.9614C30.3007 11.9697 30.3014 11.9732 30.2989 11.9671C30.293 11.9526 30.273 11.8924 30.273 11.76H28.273ZM29.0996 13.5592C29.5796 13.8952 30.1444 14.02 30.713 14.02V12.02C30.4284 12.02 30.2998 11.9581 30.2465 11.9208L29.0996 13.5592ZM30.713 14.02C31.5624 14.02 32.3393 13.7662 32.98 13.2225L31.6861 11.6975C31.4468 11.9005 31.1437 12.02 30.713 12.02V14.02ZM32.9932 13.2112C33.6893 12.5994 33.993 11.763 33.993 10.84L31.993 10.84C31.993 11.3037 31.8568 11.5472 31.6729 11.7088L32.9932 13.2112ZM33.993 10.84V9.94H31.993V10.84L33.993 10.84ZM32.9586 8.94059L31.7986 8.98059L31.8675 10.9794L33.0275 10.9394L32.9586 8.94059ZM44.5434 9.32L44.7797 10.2917L44.792 10.2887L44.8043 10.2854L44.5434 9.32ZM46.0234 8.8L46.4203 9.71786L47.0234 9.45706V8.8H46.0234ZM46.0234 4.08V3.08H45.0234V4.08H46.0234ZM49.0034 4.08H50.0034V3.08H49.0034V4.08ZM49.0034 15V16H50.0034V15H49.0034ZM46.0234 15H45.0234V16H46.0234V15ZM46.0234 10.66H47.0234V8.9793L45.5463 9.78115L46.0234 10.66ZM44.4234 11.36L44.7396 12.3087L44.749 12.3055L44.7584 12.3022L44.4234 11.36ZM39.6634 10.78L39.0101 11.5372L39.6634 10.78ZM38.6434 4.08V3.08L37.6434 3.08V4.08L38.6434 4.08ZM41.6234 4.08H42.6234V3.08H41.6234V4.08ZM40.6234 8.08C40.6234 8.69007 40.7636 9.33392 41.2209 9.82585C41.691 10.3315 42.3297 10.5 42.9434 10.5V8.5C42.677 8.5 42.6557 8.43179 42.6858 8.46415C42.7031 8.48275 42.6234 8.4166 42.6234 8.08H40.6234ZM42.9434 10.5C43.5863 10.5 44.1998 10.4327 44.7797 10.2917L44.307 8.34833C43.9003 8.44727 43.4471 8.5 42.9434 8.5V10.5ZM44.8043 10.2854C45.3463 10.1389 45.8851 9.9493 46.4203 9.71786L45.6264 7.88214C45.175 8.07737 44.727 8.23448 44.2825 8.35464L44.8043 10.2854ZM47.0234 8.8V4.08H45.0234V8.8H47.0234ZM46.0234 5.08L49.0034 5.08V3.08L46.0234 3.08V5.08ZM48.0034 4.08V15H50.0034V4.08L48.0034 4.08ZM49.0034 14H46.0234V16H49.0034V14ZM47.0234 15V10.66H45.0234V15H47.0234ZM45.5463 9.78115C45.1332 10.0054 44.6487 10.2185 44.0883 10.4178L44.7584 12.3022C45.398 12.0748 45.9802 11.8213 46.5005 11.5389L45.5463 9.78115ZM44.1071 10.4113C43.6273 10.5713 43.0569 10.66 42.3834 10.66V12.66C43.2298 12.66 44.0194 12.5487 44.7396 12.3087L44.1071 10.4113ZM42.3834 10.66C41.4251 10.66 40.7714 10.4152 40.3166 10.0228L39.0101 11.5372C39.9153 12.3181 41.0749 12.66 42.3834 12.66V10.66ZM40.3166 10.0228C39.9197 9.68046 39.6434 9.11752 39.6434 8.14L37.6434 8.14C37.6434 9.50914 38.047 10.7062 39.0101 11.5372L40.3166 10.0228ZM39.6434 8.14V4.08L37.6434 4.08V8.14L39.6434 8.14ZM38.6434 5.08H41.6234V3.08H38.6434V5.08ZM40.6234 4.08V8.08H42.6234V4.08H40.6234ZM60.2084 5.18L59.5067 5.8925L59.5122 5.8979L60.2084 5.18ZM61.5284 10.28V11.28H62.5284V10.28H61.5284ZM54.4884 10.28V9.28H53.4561L53.4889 10.3117L54.4884 10.28ZM55.2284 12.26L54.5113 12.9571L54.5213 12.9671L55.2284 12.26ZM59.1284 12.78L59.3549 13.754L59.3656 13.7515L59.3762 13.7488L59.1284 12.78ZM60.9084 12.12H61.9084V10.5333L60.4769 11.2179L60.9084 12.12ZM60.9084 14.42L61.3556 15.3144L61.9084 15.038V14.42H60.9084ZM59.2084 15L59.0122 14.0194L58.9995 14.022L58.9867 14.0249L59.2084 15ZM54.1684 14.6L53.7268 15.4973L53.7384 15.5029L54.1684 14.6ZM52.1884 12.74L51.3236 13.2421L51.3236 13.2421L52.1884 12.74ZM52.1084 6.44L51.2195 5.9817L51.2168 5.98713L52.1084 6.44ZM53.9284 4.52L53.4453 3.64442L53.4453 3.64442L53.9284 4.52ZM55.2084 6.56L54.5138 5.8406L54.5075 5.84669L54.5013 5.85289L55.2084 6.56ZM54.5484 8.3L53.5519 8.21556L53.46 9.3H54.5484V8.3ZM58.7284 8.3V9.3H59.7486L59.7282 8.28L58.7284 8.3ZM58.2084 6.66L57.4113 7.26386L57.4158 7.26978L57.4203 7.27564L58.2084 6.66ZM56.6284 4.88C57.9338 4.88 58.8533 5.24903 59.5067 5.89248L60.91 4.46752C59.8034 3.37764 58.3363 2.88 56.6284 2.88V4.88ZM59.5122 5.8979C60.1452 6.51174 60.5284 7.44034 60.5284 8.84H62.5284C62.5284 7.06633 62.0315 5.55493 60.9045 4.4621L59.5122 5.8979ZM60.5284 8.84V10.28H62.5284V8.84H60.5284ZM61.5284 9.28L54.4884 9.28V11.28H61.5284V9.28ZM53.4889 10.3117C53.5213 11.3348 53.8296 12.2559 54.5114 12.9571L55.9454 11.5629C55.6938 11.3041 55.5087 10.9052 55.4879 10.2483L53.4889 10.3117ZM54.5213 12.9671C55.2312 13.6771 56.1699 13.98 57.2084 13.98V11.98C56.5668 11.98 56.1855 11.8029 55.9355 11.5529L54.5213 12.9671ZM57.2084 13.98C57.9766 13.98 58.6942 13.9076 59.3549 13.754L58.9018 11.806C58.4158 11.919 57.8534 11.98 57.2084 11.98V13.98ZM59.3762 13.7488C60.0213 13.5838 60.6761 13.3396 61.3398 13.0221L60.4769 11.2179C59.914 11.4871 59.3821 11.6829 58.8805 11.8112L59.3762 13.7488ZM59.9084 12.12V14.42H61.9084V12.12H59.9084ZM60.4611 13.5256C60.0094 13.7515 59.5274 13.9164 59.0122 14.0194L59.4045 15.9806C60.0893 15.8436 60.7407 15.6219 61.3556 15.3144L60.4611 13.5256ZM58.9867 14.0249C58.4951 14.1366 57.8607 14.2 57.0684 14.2L57.0684 16.2C57.956 16.2 58.7483 16.1301 59.43 15.9751L58.9867 14.0249ZM57.0684 14.2C56.0979 14.2 55.2824 14.0229 54.5983 13.6971L53.7384 15.5029C54.7343 15.9771 55.8521 16.2 57.0684 16.2L57.0684 14.2ZM54.6099 13.7027C53.9508 13.3784 53.4363 12.8978 53.0531 12.2379L51.3236 13.2421C51.9004 14.2356 52.706 14.9949 53.7269 15.4973L54.6099 13.7027ZM53.0531 12.2379C52.6851 11.6041 52.4684 10.7503 52.4684 9.62H50.4684C50.4684 10.9963 50.7316 12.2226 51.3236 13.2421L53.0531 12.2379ZM52.4684 9.62C52.4684 8.44372 52.6654 7.55146 52.9999 6.89286L51.2168 5.98713C50.698 7.00854 50.4684 8.23628 50.4684 9.62H52.4684ZM52.9972 6.89829C53.3546 6.20516 53.8269 5.71809 54.4114 5.39558L53.4453 3.64442C52.4832 4.17524 51.7422 4.96817 51.2196 5.98171L52.9972 6.89829ZM54.4114 5.39558C55.0144 5.06291 55.743 4.88 56.6284 4.88V2.88C55.4604 2.88 54.389 3.12376 53.4453 3.64442L54.4114 5.39558ZM56.6484 5C55.8349 5 55.1001 5.27445 54.5138 5.8406L55.903 7.2794C56.0899 7.09888 56.3151 7 56.6484 7V5ZM54.5013 5.85289C53.8956 6.45857 53.629 7.3062 53.5519 8.21556L55.5448 8.38444C55.6011 7.72046 55.7745 7.4081 55.9155 7.26711L54.5013 5.85289ZM54.5484 9.3H58.7284V7.3H54.5484V9.3ZM59.7282 8.28C59.7115 7.44817 59.4912 6.67772 58.9964 6.04436L57.4203 7.27564C57.5922 7.49561 57.7185 7.81849 57.7286 8.32L59.7282 8.28ZM59.0055 6.05614C58.4316 5.29871 57.5718 5 56.6484 5V7C57.1383 7 57.3184 7.14129 57.4113 7.26386L59.0055 6.05614ZM66.9248 4.08H67.9248V3.08H66.9248V4.08ZM66.9248 8.28H65.9248V9.28H66.9248V8.28ZM71.0848 8.28V9.28H72.0848V8.28H71.0848ZM71.0848 4.08V3.08L70.0848 3.08V4.08L71.0848 4.08ZM74.0648 4.08H75.0648V3.08H74.0648V4.08ZM74.0648 15V16H75.0648V15H74.0648ZM71.0848 15H70.0848V16H71.0848V15ZM71.0848 10.5H72.0848V9.5H71.0848V10.5ZM66.9248 10.5V9.5H65.9248V10.5H66.9248ZM66.9248 15V16H67.9248V15H66.9248ZM63.9448 15H62.9448V16H63.9448V15ZM63.9448 4.08V3.08H62.9448V4.08H63.9448ZM65.9248 4.08V8.28H67.9248V4.08H65.9248ZM66.9248 9.28L71.0848 9.28V7.28L66.9248 7.28V9.28ZM72.0848 8.28V4.08L70.0848 4.08V8.28L72.0848 8.28ZM71.0848 5.08H74.0648V3.08H71.0848V5.08ZM73.0648 4.08V15H75.0648V4.08H73.0648ZM74.0648 14H71.0848V16H74.0648V14ZM72.0848 15V10.5H70.0848V15H72.0848ZM71.0848 9.5L66.9248 9.5V11.5H71.0848V9.5ZM65.9248 10.5V15H67.9248V10.5H65.9248ZM66.9248 14H63.9448V16H66.9248V14ZM64.9448 15V4.08H62.9448V15H64.9448ZM63.9448 5.08H66.9248V3.08H63.9448V5.08ZM80.027 9.24L79.0301 9.16025L79.0285 9.18012L79.0278 9.20003L80.027 9.24ZM79.967 10.26L78.9699 10.1833L78.9684 10.2024L78.9677 10.2216L79.967 10.26ZM79.907 11.18L80.902 11.2795L80.902 11.2795L79.907 11.18ZM79.847 11.74L78.8547 11.616L80.6823 12.2897L79.847 11.74ZM84.887 4.08V3.08H84.3479L84.0516 3.53034L84.887 4.08ZM88.467 4.08H89.467V3.08H88.467V4.08ZM88.467 15V16H89.467V15H88.467ZM85.587 15H84.587V16H85.587V15ZM85.627 9.46L86.625 9.52238L86.6251 9.5205L85.627 9.46ZM85.707 8.24L84.7123 8.1371L84.7106 8.1529L84.7095 8.16875L85.707 8.24ZM85.787 7.36L86.7847 7.42652L87.0374 3.63581L84.9512 6.81087L85.787 7.36ZM80.767 15V16H81.3064L81.6027 15.5491L80.767 15ZM77.187 15L76.187 15V16L77.187 16V15ZM77.187 4.08V3.08H76.187V4.08H77.187ZM80.067 4.08H81.067V3.08H80.067V4.08ZM79.067 8.4C79.067 8.5908 79.0556 8.84227 79.0301 9.16025L81.0238 9.31975C81.0517 8.97106 81.067 8.66253 81.067 8.4H79.067ZM79.0278 9.20003C79.0149 9.52061 78.9957 9.84835 78.9699 10.1833L80.964 10.3367C80.9916 9.97831 81.0123 9.62606 81.0262 9.27997L79.0278 9.20003ZM78.9677 10.2216C78.9549 10.5534 78.9361 10.839 78.9119 11.0805L80.902 11.2795C80.9312 10.9876 80.9523 10.6599 80.9662 10.2984L78.9677 10.2216ZM78.9119 11.0805C78.8852 11.3475 78.8663 11.523 78.8547 11.616L80.8392 11.864C80.8543 11.7437 80.8754 11.5459 80.902 11.2795L78.9119 11.0805ZM80.6823 12.2897L85.7223 4.62966L84.0516 3.53034L79.0116 11.1903L80.6823 12.2897ZM84.887 5.08H88.467V3.08H84.887V5.08ZM87.467 4.08V15H89.467V4.08H87.467ZM88.467 14H85.587V16H88.467V14ZM86.587 15V10.64H84.587V15H86.587ZM86.587 10.64C86.587 10.3042 86.5994 9.93199 86.625 9.52238L84.6289 9.39762C84.6012 9.84134 84.587 10.2558 84.587 10.64H86.587ZM86.6251 9.5205C86.6516 9.08347 86.678 8.68044 86.7044 8.31125L84.7095 8.16875C84.6825 8.54623 84.6556 8.95653 84.6288 9.3995L86.6251 9.5205ZM86.7016 8.3429C86.742 7.9531 86.7702 7.64519 86.7847 7.42652L84.7892 7.29348C84.7771 7.47481 84.7519 7.75356 84.7123 8.1371L86.7016 8.3429ZM84.9512 6.81087L79.9312 14.4509L81.6027 15.5491L86.6227 7.90913L84.9512 6.81087ZM80.767 14H77.187V16H80.767V14ZM78.187 15V4.08H76.187V15L78.187 15ZM77.187 5.08H80.067V3.08H77.187V5.08ZM79.067 4.08V8.4H81.067V4.08H79.067ZM99.6615 5.18L98.9598 5.8925L98.9653 5.8979L99.6615 5.18ZM100.981 10.28V11.28H101.981V10.28H100.981ZM93.9415 10.28V9.28H92.9092L92.942 10.3117L93.9415 10.28ZM94.6815 12.26L93.9644 12.9571L93.9744 12.9671L94.6815 12.26ZM98.5815 12.78L98.808 13.754L98.8187 13.7515L98.8293 13.7488L98.5815 12.78ZM100.361 12.12H101.361V10.5333L99.93 11.2179L100.361 12.12ZM100.361 14.42L100.809 15.3144L101.361 15.038V14.42H100.361ZM98.6615 15L98.4654 14.0194L98.4526 14.022L98.4399 14.0249L98.6615 15ZM93.6215 14.6L93.1799 15.4973L93.1916 15.5029L93.6215 14.6ZM91.6415 12.74L90.7767 13.2421L90.7767 13.2421L91.6415 12.74ZM91.5615 6.44L90.6727 5.9817L90.6699 5.98713L91.5615 6.44ZM93.3815 4.52L92.8984 3.64442L92.8984 3.64442L93.3815 4.52ZM94.6615 6.56L93.9669 5.8406L93.9606 5.84669L93.9544 5.85289L94.6615 6.56ZM94.0015 8.3L93.0051 8.21556L92.9132 9.3H94.0015V8.3ZM98.1815 8.3V9.3H99.2017L99.1813 8.28L98.1815 8.3ZM97.6615 6.66L96.8644 7.26386L96.8689 7.26978L96.8735 7.27564L97.6615 6.66ZM96.0815 4.88C97.3869 4.88 98.3064 5.24903 98.9598 5.89248L100.363 4.46752C99.2565 3.37764 97.7894 2.88 96.0815 2.88V4.88ZM98.9653 5.8979C99.5984 6.51174 99.9815 7.44034 99.9815 8.84H101.981C101.981 7.06633 101.485 5.55493 100.358 4.4621L98.9653 5.8979ZM99.9815 8.84V10.28H101.981V8.84H99.9815ZM100.981 9.28H93.9415V11.28L100.981 11.28V9.28ZM92.942 10.3117C92.9745 11.3348 93.2828 12.2559 93.9645 12.9571L95.3985 11.5629C95.1469 11.3041 94.9618 10.9052 94.941 10.2483L92.942 10.3117ZM93.9744 12.9671C94.6844 13.6771 95.623 13.98 96.6615 13.98V11.98C96.02 11.98 95.6386 11.8029 95.3886 11.5529L93.9744 12.9671ZM96.6615 13.98C97.4297 13.98 98.1474 13.9076 98.808 13.754L98.355 11.806C97.8689 11.919 97.3066 11.98 96.6615 11.98V13.98ZM98.8293 13.7488C99.4744 13.5838 100.129 13.3396 100.793 13.0221L99.93 11.2179C99.3671 11.4871 98.8352 11.6829 98.3337 11.8112L98.8293 13.7488ZM99.3615 12.12V14.42H101.361V12.12H99.3615ZM99.9143 13.5256C99.4625 13.7515 98.9805 13.9164 98.4654 14.0194L98.8576 15.9806C99.5425 15.8436 100.194 15.6219 100.809 15.3144L99.9143 13.5256ZM98.4399 14.0249C97.9482 14.1366 97.3139 14.2 96.5215 14.2V16.2C97.4091 16.2 98.2015 16.1301 98.8831 15.9751L98.4399 14.0249ZM96.5215 14.2C95.551 14.2 94.7356 14.0229 94.0514 13.6971L93.1916 15.5029C94.1874 15.9771 95.3053 16.2 96.5215 16.2V14.2ZM94.063 13.7027C93.4039 13.3784 92.8895 12.8978 92.5063 12.2379L90.7767 13.2421C91.3535 14.2356 92.1591 14.9949 93.18 15.4973L94.063 13.7027ZM92.5063 12.2379C92.1383 11.6041 91.9215 10.7503 91.9215 9.62H89.9215C89.9215 10.9963 90.1847 12.2226 90.7767 13.2421L92.5063 12.2379ZM91.9215 9.62C91.9215 8.44372 92.1185 7.55146 92.4531 6.89286L90.6699 5.98713C90.1511 7.00854 89.9215 8.23628 89.9215 9.62H91.9215ZM92.4503 6.89829C92.8077 6.20516 93.28 5.71809 93.8646 5.39558L92.8984 3.64442C91.9363 4.17524 91.1953 4.96817 90.6727 5.98171L92.4503 6.89829ZM93.8646 5.39558C94.4675 5.06291 95.1961 4.88 96.0815 4.88V2.88C94.9135 2.88 93.8421 3.12376 92.8984 3.64442L93.8646 5.39558ZM96.1015 5C95.2881 5 94.5533 5.27445 93.9669 5.8406L95.3561 7.2794C95.543 7.09888 95.7682 7 96.1015 7V5ZM93.9544 5.85289C93.3487 6.45857 93.0821 7.3062 93.0051 8.21556L94.9979 8.38444C95.0542 7.72046 95.2276 7.4081 95.3686 7.26711L93.9544 5.85289ZM94.0015 9.3H98.1815V7.3H94.0015V9.3ZM99.1813 8.28C99.1646 7.44817 98.9443 6.67772 98.4495 6.04436L96.8735 7.27564C97.0453 7.49561 97.1717 7.81849 97.1817 8.32L99.1813 8.28ZM98.4586 6.05614C97.8848 5.29871 97.0249 5 96.1015 5V7C96.5914 7 96.7715 7.14129 96.8644 7.26386L98.4586 6.05614Z" fill="white" fill-opacity="0.5"/>
<defs>
<filter id="filter0_i_343_36" x="0.0820312" y="0.519531" width="102.899" height="16.6807" filterUnits="userSpaceOnUse" color-interpolation-filters="sRGB">
<feFlood flood-opacity="0" result="BackgroundImageFix"/>
<feBlend mode="normal" in="SourceGraphic" in2="BackgroundImageFix" result="shape"/>
<feColorMatrix in="SourceAlpha" type="matrix" values="0 0 0 0 0 0 0 0 0 0 0 0 0 0 0 0 0 0 127 0" result="hardAlpha"/>
<feOffset dx="2" dy="2"/>
<feGaussianBlur stdDeviation="2"/>
<feComposite in2="hardAlpha" operator="arithmetic" k2="-1" k3="1"/>
<feColorMatrix type="matrix" values="0 0 0 0 0 0 0 0 0 0 0 0 0 0 0 0 0 0 0.25 0"/>
<feBlend mode="normal" in2="shape" result="effect1_innerShadow_343_36"/>
</filter>
</defs>
</svg>
