<svg width="100" height="16" viewBox="0 0 100 16" fill="none" xmlns="http://www.w3.org/2000/svg">
<g filter="url(#filter0_i_343_34)">
<path d="M11.7207 15L8.7007 15L8.7007 8.84L3.0407 8.84L3.0407 15H0.0207032L0.0207032 0.719999L3.0407 0.719999L3.0407 6.32L8.7007 6.32V0.719999H11.7207L11.7207 15ZM19.5537 3.86C21.0203 3.86 22.1403 4.18 22.9137 4.82C23.7003 5.44667 24.0937 6.41333 24.0937 7.72V15H22.0137L21.4337 13.52H21.3537C20.887 14.1067 20.3937 14.5333 19.8737 14.8C19.3537 15.0667 18.6403 15.2 17.7337 15.2C16.7603 15.2 15.9537 14.92 15.3137 14.36C14.6737 13.7867 14.3537 12.9133 14.3537 11.74C14.3537 10.58 14.7603 9.72667 15.5737 9.18C16.387 8.62 17.607 8.31333 19.2337 8.26L21.1337 8.2V7.72C21.1337 7.14667 20.9803 6.72667 20.6737 6.46C20.3803 6.19333 19.967 6.06 19.4337 6.06C18.9003 6.06 18.3803 6.14 17.8737 6.3C17.367 6.44667 16.8603 6.63333 16.3537 6.86L15.3737 4.84C15.9603 4.53333 16.607 4.29333 17.3137 4.12C18.0337 3.94667 18.7803 3.86 19.5537 3.86ZM19.9737 9.98C19.0137 10.0067 18.347 10.18 17.9737 10.5C17.6003 10.82 17.4137 11.24 17.4137 11.76C17.4137 12.2133 17.547 12.54 17.8137 12.74C18.0803 12.9267 18.427 13.02 18.8537 13.02C19.4937 13.02 20.0337 12.8333 20.4737 12.46C20.9137 12.0733 21.1337 11.5333 21.1337 10.84V9.94L19.9737 9.98ZM31.124 3.88C31.9107 3.88 32.644 3.98667 33.324 4.2C34.0173 4.4 34.5707 4.71333 34.984 5.14C35.4107 5.56667 35.624 6.11333 35.624 6.78C35.624 7.43333 35.424 7.95333 35.024 8.34C34.6373 8.72667 34.1107 9.00667 33.444 9.18V9.28C33.9107 9.38667 34.3307 9.54 34.704 9.74C35.0773 9.92667 35.3707 10.1867 35.584 10.52C35.8107 10.84 35.924 11.2733 35.924 11.82C35.924 12.42 35.7307 12.98 35.344 13.5C34.9707 14.0067 34.384 14.42 33.584 14.74C32.7973 15.0467 31.784 15.2 30.544 15.2C28.7307 15.2 27.3307 14.9733 26.344 14.52V12.06C26.7973 12.2733 27.3507 12.4667 28.004 12.64C28.6707 12.8133 29.3773 12.9 30.124 12.9C30.9373 12.9 31.624 12.8067 32.184 12.62C32.744 12.4333 33.024 12.1067 33.024 11.64C33.024 10.7733 31.9907 10.34 29.924 10.34H28.764V8.28H29.864C30.8507 8.28 31.6107 8.2 32.144 8.04C32.6907 7.88 32.964 7.58 32.964 7.14C32.964 6.79333 32.7907 6.53333 32.444 6.36C32.0973 6.17333 31.5307 6.08 30.744 6.08C30.224 6.08 29.6573 6.14 29.044 6.26C28.4307 6.38 27.8507 6.55333 27.304 6.78L26.424 4.7C27.0507 4.46 27.7373 4.26667 28.484 4.12C29.2307 3.96 30.1107 3.88 31.124 3.88ZM47.9177 6.94C47.9177 7.52667 47.7311 8.02667 47.3577 8.44C46.9977 8.85333 46.4577 9.12 45.7377 9.24V9.32C46.4977 9.41333 47.1044 9.67333 47.5577 10.1C48.0244 10.5267 48.2577 11.0733 48.2577 11.74C48.2577 12.3667 48.0911 12.9267 47.7577 13.42C47.4377 13.9133 46.9244 14.3 46.2177 14.58C45.5111 14.86 44.5844 15 43.4377 15H38.2377V4.08H43.4377C44.2911 4.08 45.0511 4.17333 45.7177 4.36C46.3977 4.53333 46.9311 4.82667 47.3177 5.24C47.7177 5.65333 47.9177 6.22 47.9177 6.94ZM44.8977 7.18C44.8977 6.51333 44.3711 6.18 43.3177 6.18H41.2177V8.34H42.9777C43.6044 8.34 44.0777 8.25333 44.3977 8.08C44.7311 7.89333 44.8977 7.59333 44.8977 7.18ZM45.1777 11.58C45.1777 11.1533 45.0111 10.8467 44.6777 10.66C44.3444 10.46 43.8444 10.36 43.1777 10.36H41.2177V12.94H43.2377C43.7977 12.94 44.2577 12.84 44.6177 12.64C44.9911 12.4267 45.1777 12.0733 45.1777 11.58ZM55.2959 3.86C56.7625 3.86 57.8825 4.18 58.6559 4.82C59.4425 5.44667 59.8359 6.41333 59.8359 7.72V15H57.7559L57.1759 13.52H57.0959C56.6292 14.1067 56.1359 14.5333 55.6159 14.8C55.0959 15.0667 54.3825 15.2 53.4759 15.2C52.5025 15.2 51.6959 14.92 51.0559 14.36C50.4159 13.7867 50.0959 12.9133 50.0959 11.74C50.0959 10.58 50.5025 9.72667 51.3159 9.18C52.1292 8.62 53.3492 8.31333 54.9759 8.26L56.8759 8.2V7.72C56.8759 7.14667 56.7225 6.72667 56.4159 6.46C56.1225 6.19333 55.7092 6.06 55.1759 6.06C54.6425 6.06 54.1225 6.14 53.6159 6.3C53.1092 6.44667 52.6025 6.63333 52.0959 6.86L51.1159 4.84C51.7025 4.53333 52.3492 4.29333 53.0559 4.12C53.7759 3.94667 54.5225 3.86 55.2959 3.86ZM55.7159 9.98C54.7559 10.0067 54.0892 10.18 53.7159 10.5C53.3425 10.82 53.1559 11.24 53.1559 11.76C53.1559 12.2133 53.2892 12.54 53.5559 12.74C53.8225 12.9267 54.1692 13.02 54.5959 13.02C55.2359 13.02 55.7759 12.8333 56.2159 12.46C56.6559 12.0733 56.8759 11.5333 56.8759 10.84V9.94L55.7159 9.98ZM65.8662 4.08V8.28L70.0262 8.28V4.08H73.0062V15H70.0262V10.5H65.8662V15H62.8862V4.08H65.8662ZM79.0084 8.4C79.0084 8.62667 78.995 8.90667 78.9684 9.24C78.955 9.57333 78.935 9.91333 78.9084 10.26C78.895 10.6067 78.875 10.9133 78.8484 11.18C78.8217 11.4467 78.8017 11.6333 78.7884 11.74L83.8284 4.08H87.4084V15H84.5284V10.64C84.5284 10.28 84.5417 9.88667 84.5684 9.46C84.595 9.02 84.6217 8.61333 84.6484 8.24C84.6884 7.85333 84.715 7.56 84.7284 7.36L79.7084 15H76.1284V4.08H79.0084V8.4ZM95.0229 3.88C96.5296 3.88 97.7229 4.31333 98.6029 5.18C99.4829 6.03333 99.9229 7.25333 99.9229 8.84V10.28L92.8829 10.28C92.9096 11.12 93.1562 11.78 93.6229 12.26C94.1029 12.74 94.7629 12.98 95.6029 12.98C96.3096 12.98 96.9496 12.9133 97.5229 12.78C98.0962 12.6333 98.6896 12.4133 99.3029 12.12V14.42C98.7696 14.6867 98.2029 14.88 97.6029 15C97.0162 15.1333 96.3029 15.2 95.4629 15.2C94.3696 15.2 93.4029 15 92.5629 14.6C91.7229 14.1867 91.0629 13.5667 90.5829 12.74C90.1029 11.9133 89.8629 10.8733 89.8629 9.62C89.8629 8.34 90.0762 7.28 90.5029 6.44C90.9429 5.58667 91.5496 4.94667 92.3229 4.52C93.0962 4.09333 93.9962 3.88 95.0229 3.88ZM95.0429 6C94.4696 6 93.9896 6.18667 93.6029 6.56C93.2296 6.93333 93.0096 7.51333 92.9429 8.3H97.1229C97.1096 7.63333 96.9362 7.08667 96.6029 6.66C96.2696 6.22 95.7496 6 95.0429 6Z" fill="#B0D4E3"/>
</g>
<path d="M11.7207 15V16H12.7207V15H11.7207ZM8.7007 15H7.7007V16H8.7007V15ZM8.7007 8.84H9.7007V7.84H8.7007V8.84ZM3.0407 8.84V7.84H2.0407V8.84H3.0407ZM3.0407 15V16H4.0407V15H3.0407ZM0.0207032 15H-0.979297L-0.979297 16H0.0207032V15ZM0.0207032 0.719999V-0.280001H-0.979297L-0.979297 0.719999H0.0207032ZM3.0407 0.719999H4.0407V-0.280001H3.0407V0.719999ZM3.0407 6.32H2.0407V7.32H3.0407V6.32ZM8.7007 6.32V7.32H9.7007V6.32H8.7007ZM8.7007 0.719999V-0.280001H7.7007V0.719999H8.7007ZM11.7207 0.719999L12.7207 0.719999V-0.280001L11.7207 -0.280001V0.719999ZM11.7207 14L8.7007 14V16L11.7207 16V14ZM9.7007 15L9.7007 8.84H7.7007L7.7007 15L9.7007 15ZM8.7007 7.84L3.0407 7.84V9.84L8.7007 9.84V7.84ZM2.0407 8.84L2.0407 15H4.0407L4.0407 8.84L2.0407 8.84ZM3.0407 14H0.0207032L0.0207032 16H3.0407V14ZM1.0207 15L1.0207 0.719999L-0.979297 0.719999L-0.979297 15H1.0207ZM0.0207032 1.72L3.0407 1.72V-0.280001L0.0207032 -0.280001L0.0207032 1.72ZM2.0407 0.719999L2.0407 6.32L4.0407 6.32L4.0407 0.719999H2.0407ZM3.0407 7.32L8.7007 7.32V5.32L3.0407 5.32V7.32ZM9.7007 6.32V0.719999H7.7007V6.32H9.7007ZM8.7007 1.72H11.7207V-0.280001H8.7007V1.72ZM10.7207 0.719999L10.7207 15H12.7207L12.7207 0.719999L10.7207 0.719999ZM22.9137 4.82L22.2761 5.59039L22.2833 5.59634L22.2906 5.60216L22.9137 4.82ZM24.0937 15V16H25.0937V15H24.0937ZM22.0137 15L21.0826 15.3649L21.3315 16H22.0137V15ZM21.4337 13.52L22.3647 13.1551L22.1158 12.52H21.4337V13.52ZM21.3537 13.52V12.52H20.8713L20.5711 12.8975L21.3537 13.52ZM19.8737 14.8L19.4174 13.9102L19.4174 13.9102L19.8737 14.8ZM15.3137 14.36L14.6464 15.1049L14.6552 15.1126L15.3137 14.36ZM15.5737 9.18L16.1315 10.01L16.1408 10.0036L15.5737 9.18ZM19.2337 8.26L19.2021 7.2605L19.2009 7.26054L19.2337 8.26ZM21.1337 8.2L21.1652 9.1995L22.1337 9.16892V8.2H21.1337ZM20.6737 6.46L20.001 7.19994L20.0092 7.20736L20.0175 7.21461L20.6737 6.46ZM17.8737 6.3L18.1517 7.26056L18.1633 7.25721L18.1748 7.25358L17.8737 6.3ZM16.3537 6.86L15.454 7.29649L15.8771 8.1687L16.762 7.77282L16.3537 6.86ZM15.3737 4.84L14.9104 3.95377L14.0504 4.40335L14.474 5.27649L15.3737 4.84ZM17.3137 4.12L17.0796 3.14777L17.0755 3.14879L17.3137 4.12ZM19.9737 9.98L20.0014 10.9796L20.0081 10.9794L19.9737 9.98ZM17.9737 10.5L17.3229 9.74074L17.3229 9.74074L17.9737 10.5ZM17.8137 12.74L17.2137 13.54L17.2268 13.5498L17.2402 13.5592L17.8137 12.74ZM20.4737 12.46L21.1206 13.2225L21.1273 13.2169L21.1338 13.2112L20.4737 12.46ZM21.1337 9.94H22.1337V8.90492L21.0992 8.94059L21.1337 9.94ZM19.5537 4.86C20.8919 4.86 21.7487 5.15393 22.2761 5.59039L23.5512 4.04961C22.532 3.20607 21.1488 2.86 19.5537 2.86V4.86ZM22.2906 5.60216C22.7713 5.98513 23.0937 6.61919 23.0937 7.72H25.0937C25.0937 6.20747 24.6293 4.9082 23.5367 4.03784L22.2906 5.60216ZM23.0937 7.72V15H25.0937V7.72H23.0937ZM24.0937 14H22.0137V16H24.0937V14ZM22.9447 14.6351L22.3647 13.1551L20.5026 13.8849L21.0826 15.3649L22.9447 14.6351ZM21.4337 12.52H21.3537V14.52H21.4337V12.52ZM20.5711 12.8975C20.1688 13.4031 19.7804 13.724 19.4174 13.9102L20.33 15.6898C21.0069 15.3427 21.6052 14.8102 22.1363 14.1425L20.5711 12.8975ZM19.4174 13.9102C19.0953 14.0753 18.5609 14.2 17.7337 14.2V16.2C18.7198 16.2 19.612 16.058 20.33 15.6898L19.4174 13.9102ZM17.7337 14.2C16.9653 14.2 16.4037 13.985 15.9722 13.6074L14.6552 15.1126C15.5037 15.855 16.5554 16.2 17.7337 16.2V14.2ZM15.9809 13.6152C15.6218 13.2935 15.3537 12.7374 15.3537 11.74H13.3537C13.3537 13.0893 13.7255 14.2799 14.6464 15.1048L15.9809 13.6152ZM15.3537 11.74C15.3537 10.8425 15.6483 10.3347 16.1315 10.01L15.0158 8.35005C13.8723 9.11863 13.3537 10.3175 13.3537 11.74H15.3537ZM16.1408 10.0036C16.7246 9.60166 17.7195 9.31018 19.2664 9.25946L19.2009 7.26054C17.4945 7.31649 16.0494 7.63834 15.0066 8.35635L16.1408 10.0036ZM19.2652 9.2595L21.1652 9.1995L21.1021 7.2005L19.2021 7.2605L19.2652 9.2595ZM22.1337 8.2V7.72H20.1337V8.2H22.1337ZM22.1337 7.72C22.1337 6.98029 21.9332 6.23007 21.3299 5.70539L20.0175 7.21461C20.0274 7.22326 20.1337 7.31305 20.1337 7.72H22.1337ZM21.3463 5.72006C20.8132 5.23542 20.1285 5.06 19.4337 5.06V7.06C19.8055 7.06 19.9474 7.15124 20.001 7.19994L21.3463 5.72006ZM19.4337 5.06C18.7986 5.06 18.177 5.15554 17.5725 5.34642L18.1748 7.25358C18.5837 7.12446 19.0021 7.06 19.4337 7.06V5.06ZM17.5956 5.33944C17.0422 5.49963 16.4921 5.70258 15.9453 5.94718L16.762 7.77282C17.2286 7.56408 17.6918 7.3937 18.1517 7.26056L17.5956 5.33944ZM17.2534 6.42351L16.2734 4.40351L14.474 5.27649L15.454 7.29649L17.2534 6.42351ZM15.8369 5.72623C16.3456 5.46031 16.9157 5.24725 17.5519 5.09121L17.0755 3.14879C16.2983 3.33942 15.5751 3.60635 14.9104 3.95377L15.8369 5.72623ZM17.5477 5.09222C18.1878 4.93814 18.8557 4.86 19.5537 4.86V2.86C18.705 2.86 17.8796 2.95519 17.0796 3.14778L17.5477 5.09222ZM19.9459 8.98039C18.9433 9.00824 17.9726 9.18386 17.3229 9.74074L18.6245 11.2593C18.7214 11.1761 19.0841 11.0051 20.0014 10.9796L19.9459 8.98039ZM17.3229 9.74074C16.7138 10.2628 16.4137 10.9672 16.4137 11.76H18.4137C18.4137 11.5128 18.4869 11.3772 18.6245 11.2593L17.3229 9.74074ZM16.4137 11.76C16.4137 12.4061 16.6114 13.0883 17.2137 13.54L18.4137 11.94C18.4206 11.9452 18.4285 11.9528 18.435 11.9614C18.4413 11.9697 18.442 11.9732 18.4395 11.9671C18.4336 11.9526 18.4137 11.8924 18.4137 11.76H16.4137ZM17.2402 13.5592C17.7202 13.8952 18.285 14.02 18.8537 14.02V12.02C18.569 12.02 18.4405 11.9581 18.3871 11.9208L17.2402 13.5592ZM18.8537 14.02C19.703 14.02 20.4799 13.7662 21.1206 13.2225L19.8267 11.6975C19.5874 11.9005 19.2843 12.02 18.8537 12.02V14.02ZM21.1338 13.2112C21.8299 12.5994 22.1337 11.763 22.1337 10.84H20.1337C20.1337 11.3037 19.9975 11.5472 19.8136 11.7088L21.1338 13.2112ZM22.1337 10.84V9.94H20.1337V10.84H22.1337ZM21.0992 8.94059L19.9392 8.98059L20.0081 10.9794L21.1681 10.9394L21.0992 8.94059ZM33.324 4.2L33.0246 5.15415L33.0357 5.15761L33.0468 5.16082L33.324 4.2ZM34.984 5.14L34.2657 5.83579L34.2713 5.84149L34.2769 5.84711L34.984 5.14ZM35.024 8.34L34.329 7.62101L34.3229 7.6269L34.3169 7.63289L35.024 8.34ZM33.444 9.18L33.1924 8.21218L32.444 8.40675V9.18H33.444ZM33.444 9.28H32.444V10.0772L33.2212 10.2549L33.444 9.28ZM34.704 9.74L34.2318 10.6215L34.2442 10.6281L34.2568 10.6344L34.704 9.74ZM35.584 10.52L34.7417 11.0591L34.7544 11.0788L34.768 11.098L35.584 10.52ZM35.344 13.5L34.5415 12.9033L34.5389 12.9068L35.344 13.5ZM33.584 14.74L33.9472 15.6717L33.9554 15.6685L33.584 14.74ZM26.344 14.52H25.344V15.161L25.9265 15.4287L26.344 14.52ZM26.344 12.06L26.7698 11.1552L25.344 10.4842V12.06H26.344ZM28.004 12.64L27.7475 13.6066L27.7524 13.6078L28.004 12.64ZM28.764 10.34H27.764V11.34H28.764V10.34ZM28.764 8.28V7.28H27.764V8.28H28.764ZM32.144 8.04L31.8631 7.08024L31.8566 7.08217L32.144 8.04ZM32.444 6.36L31.9699 7.24047L31.9832 7.24765L31.9968 7.25443L32.444 6.36ZM29.044 6.26L29.236 7.24139L29.236 7.24139L29.044 6.26ZM27.304 6.78L26.383 7.16964L26.7699 8.08402L27.687 7.70374L27.304 6.78ZM26.424 4.7L26.0663 3.76614L25.0997 4.13634L25.503 5.08964L26.424 4.7ZM28.484 4.12L28.6767 5.10125L28.6851 5.0996L28.6935 5.0978L28.484 4.12ZM31.124 4.88C31.8196 4.88 32.451 4.97418 33.0246 5.15415L33.6233 3.24585C32.837 2.99915 32.0017 2.88 31.124 2.88V4.88ZM33.0468 5.16082C33.6084 5.32282 33.9974 5.55877 34.2657 5.83579L35.7022 4.4442C35.1439 3.8679 34.4262 3.47718 33.6011 3.23918L33.0468 5.16082ZM34.2769 5.84711C34.4955 6.06571 34.624 6.34804 34.624 6.78H36.624C36.624 5.87863 36.3258 5.06762 35.6911 4.43289L34.2769 5.84711ZM34.624 6.78C34.624 7.21344 34.5001 7.45561 34.329 7.62101L35.719 9.05899C36.3479 8.45106 36.624 7.65322 36.624 6.78H34.624ZM34.3169 7.63289C34.0849 7.86489 33.7309 8.07216 33.1924 8.21218L33.6956 10.1478C34.4904 9.94117 35.1898 9.58844 35.7311 9.04711L34.3169 7.63289ZM32.444 9.18V9.28H34.444V9.18H32.444ZM33.2212 10.2549C33.612 10.3442 33.9465 10.4686 34.2318 10.6215L35.1762 8.85852C34.7148 8.61135 34.2093 8.42914 33.6668 8.30514L33.2212 10.2549ZM34.2568 10.6344C34.478 10.745 34.631 10.8861 34.7417 11.0591L36.4263 9.98095C36.1103 9.48726 35.6767 9.1083 35.1512 8.84557L34.2568 10.6344ZM34.768 11.098C34.8361 11.1942 34.924 11.4012 34.924 11.82H36.924C36.924 11.1455 36.7852 10.4858 36.4 9.94198L34.768 11.098ZM34.924 11.82C34.924 12.1875 34.8108 12.5412 34.5415 12.9033L36.1464 14.0967C36.6505 13.4188 36.924 12.6525 36.924 11.82H34.924ZM34.5389 12.9068C34.3097 13.2178 33.9012 13.5361 33.2126 13.8115L33.9554 15.6685C34.8668 15.3039 35.6316 14.7955 36.149 14.0932L34.5389 12.9068ZM33.2208 13.8083C32.5907 14.0539 31.7127 14.2 30.544 14.2L30.544 16.2C31.8553 16.2 33.0039 16.0394 33.9472 15.6717L33.2208 13.8083ZM30.544 14.2C28.7906 14.2 27.5577 13.9772 26.7615 13.6113L25.9265 15.4287C27.1036 15.9695 28.6707 16.2 30.544 16.2L30.544 14.2ZM27.344 14.52V12.06H25.344V14.52H27.344ZM25.9182 12.9648C26.4411 13.2109 27.0547 13.4227 27.7475 13.6066L28.2604 11.6734C27.6466 11.5106 27.1536 11.3358 26.7698 11.1552L25.9182 12.9648ZM27.7524 13.6078C28.5078 13.8042 29.2995 13.9 30.124 13.9V11.9C29.4552 11.9 28.8335 11.8224 28.2556 11.6722L27.7524 13.6078ZM30.124 13.9C31.0072 13.9 31.8078 13.7995 32.5002 13.5687L31.8678 11.6713C31.4401 11.8139 30.8674 11.9 30.124 11.9V13.9ZM32.5002 13.5687C32.8907 13.4385 33.2793 13.2287 33.5732 12.8858C33.8822 12.5253 34.024 12.0903 34.024 11.64H32.024C32.024 11.6556 32.0219 11.6497 32.0285 11.6309C32.0355 11.611 32.0463 11.5941 32.0547 11.5842C32.0687 11.5679 32.0372 11.6148 31.8678 11.6713L32.5002 13.5687ZM34.024 11.64C34.024 11.208 33.8893 10.7966 33.6131 10.449C33.349 10.1168 32.9972 9.89441 32.6357 9.74281C31.9329 9.44808 30.997 9.34 29.924 9.34V11.34C30.9176 11.34 31.5317 11.4486 31.8623 11.5872C32.0174 11.6523 32.0532 11.7007 32.0474 11.6935C32.0295 11.6709 32.024 11.6387 32.024 11.64H34.024ZM29.924 9.34H28.764V11.34H29.924V9.34ZM29.764 10.34V8.28H27.764V10.34H29.764ZM28.764 9.28H29.864V7.28H28.764V9.28ZM29.864 9.28C30.8853 9.28 31.7594 9.19941 32.4313 8.99783L31.8566 7.08217C31.4619 7.20059 30.816 7.28 29.864 7.28V9.28ZM32.4249 8.99974C32.8066 8.88802 33.1977 8.69828 33.4982 8.36849C33.8174 8.01813 33.964 7.58634 33.964 7.14H31.964C31.964 7.14533 31.9634 7.12775 31.9747 7.09726C31.9864 7.06546 32.004 7.03888 32.0198 7.02151C32.034 7.00592 32.0371 7.00838 32.0135 7.02161C31.989 7.03533 31.9419 7.05719 31.8631 7.08026L32.4249 8.99974ZM33.964 7.14C33.964 6.79168 33.874 6.44229 33.666 6.1303C33.4622 5.82456 33.1832 5.61155 32.8912 5.46557L31.9968 7.25443C32.0515 7.28178 32.0324 7.28544 32.0019 7.2397C31.9873 7.2178 31.9764 7.19363 31.97 7.17097C31.9637 7.14912 31.964 7.13716 31.964 7.14H33.964ZM32.9181 5.47953C32.3413 5.16894 31.562 5.08 30.744 5.08V7.08C31.4993 7.08 31.8534 7.17773 31.9699 7.24047L32.9181 5.47953ZM30.744 5.08C30.1482 5.08 29.5163 5.14862 28.852 5.27861L29.236 7.24139C29.7983 7.13138 30.2998 7.08 30.744 7.08V5.08ZM28.852 5.27861C28.1769 5.4107 27.5326 5.60267 26.921 5.85626L27.687 7.70374C28.1687 7.50399 28.6845 7.3493 29.236 7.24139L28.852 5.27861ZM28.225 6.39036L27.345 4.31036L25.503 5.08964L26.383 7.16964L28.225 6.39036ZM26.7816 5.63386C27.3482 5.41685 27.979 5.23831 28.6767 5.10125L28.2912 3.13875C27.4957 3.29502 26.7531 3.50314 26.0663 3.76614L26.7816 5.63386ZM28.6935 5.0978C29.3532 4.95645 30.1597 4.88 31.124 4.88V2.88C30.0616 2.88 29.1081 2.96355 28.2745 3.1422L28.6935 5.0978ZM47.3577 8.44L46.6156 7.76971L46.6096 7.77641L46.6037 7.78322L47.3577 8.44ZM45.7377 9.24L45.5733 8.25361L44.7377 8.39287V9.24H45.7377ZM45.7377 9.32H44.7377V10.2047L45.6158 10.3125L45.7377 9.32ZM47.5577 10.1L46.8724 10.8282L46.8776 10.8332L46.883 10.838L47.5577 10.1ZM47.7577 13.42L46.9291 12.8601L46.9239 12.8679L46.9188 12.8758L47.7577 13.42ZM38.2377 15H37.2377V16H38.2377V15ZM38.2377 4.08V3.08H37.2377V4.08H38.2377ZM45.7177 4.36L45.4481 5.32296L45.4594 5.32612L45.4707 5.32901L45.7177 4.36ZM47.3177 5.24L46.5875 5.92316L46.5932 5.92934L46.5991 5.93542L47.3177 5.24ZM41.2177 6.18V5.18H40.2177V6.18H41.2177ZM41.2177 8.34H40.2177V9.34H41.2177V8.34ZM44.3977 8.08L44.8741 8.95938L44.8863 8.95251L44.3977 8.08ZM44.6777 10.66L44.1632 11.5175L44.1761 11.5252L44.1891 11.5325L44.6777 10.66ZM41.2177 10.36V9.36H40.2177V10.36H41.2177ZM41.2177 12.94H40.2177V13.94H41.2177V12.94ZM44.6177 12.64L45.1034 13.5142L45.1139 13.5082L44.6177 12.64ZM46.9177 6.94C46.9177 7.29347 46.8135 7.55062 46.6156 7.76971L48.0998 9.11029C48.6486 8.50271 48.9177 7.75987 48.9177 6.94L46.9177 6.94ZM46.6037 7.78322C46.4401 7.97101 46.1408 8.15903 45.5733 8.25361L45.9021 10.2264C46.7747 10.081 47.5554 9.73565 48.1118 9.09678L46.6037 7.78322ZM44.7377 9.24V9.32H46.7377V9.24H44.7377ZM45.6158 10.3125C46.2141 10.386 46.6067 10.5781 46.8724 10.8282L48.2431 9.3718C47.6021 8.76854 46.7814 8.44065 45.8596 8.32746L45.6158 10.3125ZM46.883 10.838C47.1301 11.0639 47.2577 11.3369 47.2577 11.74H49.2577C49.2577 10.8098 48.9187 9.98939 48.2325 9.36197L46.883 10.838ZM47.2577 11.74C47.2577 12.1782 47.1447 12.5411 46.9291 12.8601L48.5863 13.9799C49.0374 13.3122 49.2577 12.5551 49.2577 11.74H47.2577ZM46.9188 12.8758C46.7408 13.1501 46.4193 13.4245 45.8494 13.6503L46.5861 15.5097C47.4295 15.1755 48.1346 14.6765 48.5967 13.9642L46.9188 12.8758ZM45.8494 13.6503C45.3038 13.8665 44.5161 14 43.4377 14V16C44.6527 16 45.7183 15.8535 46.5861 15.5097L45.8494 13.6503ZM43.4377 14H38.2377V16H43.4377V14ZM39.2377 15V4.08H37.2377V15H39.2377ZM38.2377 5.08H43.4377V3.08H38.2377V5.08ZM43.4377 5.08C44.2202 5.08 44.8868 5.16579 45.4481 5.32296L45.9874 3.39704C45.2154 3.18087 44.362 3.08 43.4377 3.08V5.08ZM45.4707 5.32901C46.01 5.46649 46.3594 5.67936 46.5875 5.92316L48.048 4.55684C47.5027 3.97397 46.7854 3.60018 45.9647 3.39099L45.4707 5.32901ZM46.5991 5.93542C46.776 6.11814 46.9177 6.4109 46.9177 6.94L48.9177 6.94C48.9177 6.0291 48.6595 5.18852 48.0363 4.54458L46.5991 5.93542ZM45.8977 7.18C45.8977 6.53254 45.6139 5.94981 45.0375 5.58502C44.5384 5.26909 43.9176 5.18 43.3177 5.18V7.18C43.5314 7.18 43.6898 7.19718 43.8026 7.22096C43.9162 7.24494 43.9617 7.27105 43.9679 7.27498C43.9698 7.27616 43.962 7.27144 43.9498 7.25861C43.9373 7.24539 43.9246 7.22821 43.9142 7.20849C43.8919 7.16607 43.8977 7.14657 43.8977 7.18H45.8977ZM43.3177 5.18H41.2177V7.18H43.3177V5.18ZM40.2177 6.18V8.34H42.2177V6.18H40.2177ZM41.2177 9.34H42.9777V7.34H41.2177V9.34ZM42.9777 9.34C43.6663 9.34 44.3374 9.24996 44.874 8.95929L43.9215 7.20071C43.8181 7.2567 43.5425 7.34 42.9777 7.34V9.34ZM44.8863 8.95251C45.566 8.57192 45.8977 7.91896 45.8977 7.18H43.8977C43.8977 7.21636 43.8941 7.23547 43.8927 7.24123C43.8915 7.24621 43.8923 7.24063 43.8986 7.22936C43.9015 7.22408 43.905 7.21872 43.9089 7.21365C43.9128 7.2086 43.9163 7.20475 43.919 7.20215C43.9246 7.19666 43.9235 7.19945 43.9091 7.20749L44.8863 8.95251ZM46.1777 11.58C46.1777 10.8427 45.8579 10.1747 45.1663 9.78749L44.1891 11.5325C44.2011 11.5392 44.2007 11.5408 44.1941 11.5343C44.1871 11.5274 44.1797 11.5177 44.1741 11.5075C44.1688 11.4977 44.1693 11.4949 44.1714 11.5041C44.1736 11.5141 44.1777 11.5381 44.1777 11.58H46.1777ZM45.1922 9.80251C44.6285 9.46428 43.9118 9.36 43.1777 9.36V11.36C43.777 11.36 44.0603 11.4557 44.1632 11.5175L45.1922 9.80251ZM43.1777 9.36H41.2177V11.36H43.1777V9.36ZM40.2177 10.36V12.94H42.2177V10.36H40.2177ZM41.2177 13.94H43.2377V11.94H41.2177V13.94ZM43.2377 13.94C43.9092 13.94 44.5509 13.8211 45.1034 13.5142L44.1321 11.7658C43.9646 11.8589 43.6863 11.94 43.2377 11.94V13.94ZM45.1139 13.5082C45.8502 13.0875 46.1777 12.3688 46.1777 11.58H44.1777C44.1777 11.7015 44.155 11.7451 44.1535 11.7479C44.1525 11.7498 44.1524 11.7499 44.1515 11.7508C44.1502 11.7521 44.1423 11.7599 44.1216 11.7718L45.1139 13.5082ZM58.6559 4.82L58.0183 5.59039L58.0255 5.59634L58.0328 5.60216L58.6559 4.82ZM59.8359 15V16H60.8359V15H59.8359ZM57.7559 15L56.8248 15.3649L57.0737 16H57.7559V15ZM57.1759 13.52L58.1069 13.1551L57.858 12.52H57.1759V13.52ZM57.0959 13.52V12.52H56.6135L56.3133 12.8975L57.0959 13.52ZM55.6159 14.8L55.1595 13.9102L55.1595 13.9102L55.6159 14.8ZM51.0559 14.36L50.3886 15.1049L50.3974 15.1126L51.0559 14.36ZM51.3159 9.18L51.8737 10.01L51.883 10.0036L51.3159 9.18ZM54.9759 8.26L54.9443 7.2605L54.9431 7.26054L54.9759 8.26ZM56.8759 8.2L56.9074 9.1995L57.8759 9.16892V8.2H56.8759ZM56.4159 6.46L55.7432 7.19994L55.7514 7.20736L55.7597 7.21461L56.4159 6.46ZM53.6159 6.3L53.8939 7.26056L53.9055 7.25721L53.917 7.25358L53.6159 6.3ZM52.0959 6.86L51.1962 7.29649L51.6193 8.1687L52.5042 7.77282L52.0959 6.86ZM51.1159 4.84L50.6526 3.95377L49.7925 4.40335L50.2162 5.27649L51.1159 4.84ZM53.0559 4.12L52.8218 3.14777L52.8176 3.14879L53.0559 4.12ZM55.7159 9.98L55.7436 10.9796L55.7503 10.9794L55.7159 9.98ZM53.7159 10.5L53.0651 9.74074L53.0651 9.74074L53.7159 10.5ZM53.5559 12.74L52.9559 13.54L52.969 13.5498L52.9824 13.5592L53.5559 12.74ZM56.2159 12.46L56.8628 13.2225L56.8695 13.2169L56.876 13.2112L56.2159 12.46ZM56.8759 9.94H57.8759V8.90492L56.8414 8.94059L56.8759 9.94ZM55.2959 4.86C56.6341 4.86 57.4909 5.15393 58.0183 5.59039L59.2934 4.04961C58.2742 3.20607 56.891 2.86 55.2959 2.86V4.86ZM58.0328 5.60216C58.5135 5.98513 58.8359 6.61919 58.8359 7.72H60.8359C60.8359 6.20747 60.3715 4.9082 59.2789 4.03784L58.0328 5.60216ZM58.8359 7.72V15H60.8359V7.72H58.8359ZM59.8359 14H57.7559V16H59.8359V14ZM58.6869 14.6351L58.1069 13.1551L56.2448 13.8849L56.8248 15.3649L58.6869 14.6351ZM57.1759 12.52H57.0959V14.52H57.1759V12.52ZM56.3133 12.8975C55.911 13.4031 55.5226 13.724 55.1595 13.9102L56.0722 15.6898C56.7491 15.3427 57.3474 14.8102 57.8785 14.1425L56.3133 12.8975ZM55.1595 13.9102C54.8375 14.0753 54.303 14.2 53.4759 14.2L53.4759 16.2C54.462 16.2 55.3542 16.058 56.0722 15.6898L55.1595 13.9102ZM53.4759 14.2C52.7075 14.2 52.1458 13.985 51.7144 13.6074L50.3974 15.1126C51.2459 15.855 52.2976 16.2 53.4759 16.2L53.4759 14.2ZM51.7231 13.6152C51.364 13.2935 51.0959 12.7374 51.0959 11.74H49.0959C49.0959 13.0893 49.4677 14.2799 50.3886 15.1048L51.7231 13.6152ZM51.0959 11.74C51.0959 10.8425 51.3905 10.3347 51.8737 10.01L50.758 8.35005C49.6145 9.11863 49.0959 10.3175 49.0959 11.74H51.0959ZM51.883 10.0036C52.4668 9.60166 53.4617 9.31018 55.0086 9.25946L54.9431 7.26054C53.2367 7.31649 51.7916 7.63834 50.7488 8.35635L51.883 10.0036ZM55.0074 9.2595L56.9074 9.1995L56.8443 7.2005L54.9443 7.2605L55.0074 9.2595ZM57.8759 8.2V7.72H55.8759V8.2H57.8759ZM57.8759 7.72C57.8759 6.98029 57.6754 6.23007 57.072 5.70539L55.7597 7.21461C55.7696 7.22326 55.8759 7.31305 55.8759 7.72H57.8759ZM57.0885 5.72006C56.5554 5.23542 55.8707 5.06 55.1759 5.06V7.06C55.5476 7.06 55.6896 7.15124 55.7432 7.19994L57.0885 5.72006ZM55.1759 5.06C54.5408 5.06 53.9192 5.15554 53.3147 5.34642L53.917 7.25358C54.3259 7.12446 54.7443 7.06 55.1759 7.06V5.06ZM53.3378 5.33944C52.7844 5.49963 52.2342 5.70258 51.6875 5.94718L52.5042 7.77282C52.9708 7.56408 53.434 7.3937 53.8939 7.26056L53.3378 5.33944ZM52.9956 6.42351L52.0156 4.40351L50.2162 5.27649L51.1962 7.29649L52.9956 6.42351ZM51.5791 5.72623C52.0878 5.46031 52.6579 5.24725 53.2941 5.09121L52.8176 3.14879C52.0405 3.33942 51.3172 3.60635 50.6526 3.95377L51.5791 5.72623ZM53.2899 5.09222C53.9299 4.93814 54.5979 4.86 55.2959 4.86V2.86C54.4472 2.86 53.6218 2.95519 52.8218 3.14778L53.2899 5.09222ZM55.6881 8.98039C54.6854 9.00824 53.7148 9.18386 53.0651 9.74074L54.3667 11.2593C54.4636 11.1761 54.8263 11.0051 55.7436 10.9796L55.6881 8.98039ZM53.0651 9.74074C52.456 10.2628 52.1559 10.9672 52.1559 11.76L54.1559 11.76C54.1559 11.5128 54.2291 11.3772 54.3667 11.2593L53.0651 9.74074ZM52.1559 11.76C52.1559 12.4061 52.3536 13.0883 52.9559 13.54L54.1559 11.94C54.1628 11.9452 54.1707 11.9528 54.1772 11.9614C54.1835 11.9697 54.1842 11.9732 54.1817 11.9671C54.1758 11.9526 54.1559 11.8924 54.1559 11.76L52.1559 11.76ZM52.9824 13.5592C53.4624 13.8952 54.0272 14.02 54.5959 14.02V12.02C54.3112 12.02 54.1827 11.9581 54.1293 11.9208L52.9824 13.5592ZM54.5959 14.02C55.4452 14.02 56.2221 13.7662 56.8628 13.2225L55.5689 11.6975C55.3296 11.9005 55.0265 12.02 54.5959 12.02V14.02ZM56.876 13.2112C57.5721 12.5994 57.8759 11.763 57.8759 10.84H55.8759C55.8759 11.3037 55.7397 11.5472 55.5557 11.7088L56.876 13.2112ZM57.8759 10.84V9.94H55.8759V10.84H57.8759ZM56.8414 8.94059L55.6814 8.98059L55.7503 10.9794L56.9103 10.9394L56.8414 8.94059ZM65.8662 4.08H66.8662V3.08H65.8662V4.08ZM65.8662 8.28H64.8662V9.28H65.8662V8.28ZM70.0262 8.28V9.28H71.0262V8.28H70.0262ZM70.0262 4.08V3.08L69.0262 3.08V4.08L70.0262 4.08ZM73.0062 4.08H74.0062V3.08H73.0062V4.08ZM73.0062 15V16H74.0062V15H73.0062ZM70.0262 15H69.0262V16H70.0262V15ZM70.0262 10.5H71.0262V9.5H70.0262V10.5ZM65.8662 10.5V9.5H64.8662V10.5H65.8662ZM65.8662 15V16H66.8662V15H65.8662ZM62.8862 15H61.8862V16H62.8862V15ZM62.8862 4.08V3.08H61.8862V4.08H62.8862ZM64.8662 4.08V8.28H66.8662V4.08H64.8662ZM65.8662 9.28L70.0262 9.28V7.28L65.8662 7.28V9.28ZM71.0262 8.28V4.08L69.0262 4.08V8.28L71.0262 8.28ZM70.0262 5.08H73.0062V3.08H70.0262V5.08ZM72.0062 4.08V15H74.0062V4.08H72.0062ZM73.0062 14H70.0262V16H73.0062V14ZM71.0262 15V10.5H69.0262V15H71.0262ZM70.0262 9.5L65.8662 9.5V11.5H70.0262V9.5ZM64.8662 10.5V15H66.8662V10.5H64.8662ZM65.8662 14H62.8862V16H65.8662V14ZM63.8862 15V4.08H61.8862V15H63.8862ZM62.8862 5.08H65.8662V3.08H62.8862V5.08ZM78.9684 9.24L77.9715 9.16025L77.97 9.18012L77.9692 9.20003L78.9684 9.24ZM78.9084 10.26L77.9113 10.1833L77.9098 10.2024L77.9091 10.2216L78.9084 10.26ZM78.8484 11.18L79.8434 11.2795L79.8434 11.2795L78.8484 11.18ZM78.7884 11.74L77.7961 11.616L79.6238 12.2897L78.7884 11.74ZM83.8284 4.08V3.08H83.2893L82.993 3.53034L83.8284 4.08ZM87.4084 4.08H88.4084V3.08H87.4084V4.08ZM87.4084 15V16H88.4084V15H87.4084ZM84.5284 15H83.5284V16H84.5284V15ZM84.5684 9.46L85.5664 9.52238L85.5665 9.5205L84.5684 9.46ZM84.6484 8.24L83.6537 8.1371L83.652 8.1529L83.6509 8.16875L84.6484 8.24ZM84.7284 7.36L85.7261 7.42652L85.9789 3.63581L83.8926 6.81087L84.7284 7.36ZM79.7084 15V16H80.2478L80.5441 15.5491L79.7084 15ZM76.1284 15L75.1284 15V16L76.1284 16V15ZM76.1284 4.08V3.08H75.1284V4.08H76.1284ZM79.0084 4.08H80.0084V3.08H79.0084V4.08ZM78.0084 8.4C78.0084 8.5908 77.997 8.84227 77.9715 9.16025L79.9652 9.31975C79.9931 8.97106 80.0084 8.66253 80.0084 8.4H78.0084ZM77.9692 9.20003C77.9563 9.52061 77.9371 9.84835 77.9113 10.1833L79.9054 10.3367C79.933 9.97831 79.9537 9.62606 79.9676 9.27997L77.9692 9.20003ZM77.9091 10.2216C77.8963 10.5534 77.8775 10.839 77.8533 11.0805L79.8434 11.2795C79.8726 10.9876 79.8937 10.6599 79.9076 10.2984L77.9091 10.2216ZM77.8533 11.0805C77.8266 11.3475 77.8077 11.523 77.7961 11.616L79.7806 11.864C79.7957 11.7437 79.8168 11.5459 79.8434 11.2795L77.8533 11.0805ZM79.6238 12.2897L84.6638 4.62966L82.993 3.53034L77.953 11.1903L79.6238 12.2897ZM83.8284 5.08H87.4084V3.08H83.8284V5.08ZM86.4084 4.08V15H88.4084V4.08H86.4084ZM87.4084 14H84.5284V16H87.4084V14ZM85.5284 15V10.64H83.5284V15H85.5284ZM85.5284 10.64C85.5284 10.3042 85.5408 9.93199 85.5664 9.52238L83.5703 9.39762C83.5426 9.84134 83.5284 10.2558 83.5284 10.64H85.5284ZM85.5665 9.5205C85.593 9.08347 85.6194 8.68044 85.6458 8.31125L83.6509 8.16875C83.6239 8.54623 83.597 8.95653 83.5702 9.3995L85.5665 9.5205ZM85.6431 8.3429C85.6834 7.9531 85.7116 7.64519 85.7261 7.42652L83.7306 7.29348C83.7185 7.47481 83.6933 7.75356 83.6537 8.1371L85.6431 8.3429ZM83.8926 6.81087L78.8726 14.4509L80.5441 15.5491L85.5641 7.90913L83.8926 6.81087ZM79.7084 14H76.1284V16H79.7084V14ZM77.1284 15V4.08H75.1284V15L77.1284 15ZM76.1284 5.08H79.0084V3.08H76.1284V5.08ZM78.0084 4.08V8.4H80.0084V4.08H78.0084ZM98.6029 5.18L97.9012 5.8925L97.9067 5.8979L98.6029 5.18ZM99.9229 10.28V11.28H100.923V10.28H99.9229ZM92.8829 10.28V9.28L91.8506 9.28L91.8834 10.3117L92.8829 10.28ZM93.6229 12.26L92.9058 12.9571L92.9158 12.9671L93.6229 12.26ZM97.5229 12.78L97.7494 13.754L97.7601 13.7515L97.7707 13.7488L97.5229 12.78ZM99.3029 12.12H100.303V10.5333L98.8714 11.2179L99.3029 12.12ZM99.3029 14.42L99.7501 15.3144L100.303 15.038V14.42H99.3029ZM97.6029 15L97.4068 14.0194L97.394 14.022L97.3813 14.0249L97.6029 15ZM92.5629 14.6L92.1213 15.4973L92.133 15.5029L92.5629 14.6ZM90.5829 12.74L89.7181 13.2421L89.7181 13.2421L90.5829 12.74ZM90.5029 6.44L89.6141 5.9817L89.6113 5.98713L90.5029 6.44ZM92.3229 4.52L91.8398 3.64442L91.8398 3.64442L92.3229 4.52ZM93.6029 6.56L92.9083 5.8406L92.902 5.84669L92.8958 5.85289L93.6029 6.56ZM92.9429 8.3L91.9465 8.21556L91.8546 9.3L92.9429 9.3V8.3ZM97.1229 8.3V9.3H98.1431L98.1227 8.28L97.1229 8.3ZM96.6029 6.66L95.8058 7.26386L95.8103 7.26978L95.8149 7.27564L96.6029 6.66ZM95.0229 4.88C96.3283 4.88 97.2478 5.24903 97.9012 5.89248L99.3046 4.46752C98.1979 3.37764 96.7308 2.88 95.0229 2.88V4.88ZM97.9067 5.8979C98.5398 6.51174 98.9229 7.44034 98.9229 8.84H100.923C100.923 7.06633 100.426 5.55493 99.299 4.4621L97.9067 5.8979ZM98.9229 8.84V10.28H100.923V8.84H98.9229ZM99.9229 9.28H92.8829V11.28L99.9229 11.28V9.28ZM91.8834 10.3117C91.9159 11.3348 92.2242 12.2559 92.9059 12.9571L94.3399 11.5629C94.0883 11.3041 93.9032 10.9052 93.8824 10.2483L91.8834 10.3117ZM92.9158 12.9671C93.6258 13.6771 94.5644 13.98 95.6029 13.98V11.98C94.9614 11.98 94.58 11.8029 94.33 11.5529L92.9158 12.9671ZM95.6029 13.98C96.3711 13.98 97.0888 13.9076 97.7494 13.754L97.2964 11.806C96.8104 11.919 96.248 11.98 95.6029 11.98V13.98ZM97.7707 13.7488C98.4158 13.5838 99.0706 13.3396 99.7343 13.0221L98.8714 11.2179C98.3085 11.4871 97.7766 11.6829 97.2751 11.8112L97.7707 13.7488ZM98.3029 12.12V14.42H100.303V12.12H98.3029ZM98.8557 13.5256C98.4039 13.7515 97.9219 13.9164 97.4068 14.0194L97.799 15.9806C98.4839 15.8436 99.1352 15.6219 99.7501 15.3144L98.8557 13.5256ZM97.3813 14.0249C96.8896 14.1366 96.2553 14.2 95.4629 14.2V16.2C96.3505 16.2 97.1429 16.1301 97.8245 15.9751L97.3813 14.0249ZM95.4629 14.2C94.4924 14.2 93.677 14.0229 92.9928 13.6971L92.133 15.5029C93.1288 15.9771 94.2467 16.2 95.4629 16.2V14.2ZM93.0044 13.7027C92.3453 13.3784 91.8309 12.8978 91.4477 12.2379L89.7181 13.2421C90.2949 14.2356 91.1005 14.9949 92.1214 15.4973L93.0044 13.7027ZM91.4477 12.2379C91.0797 11.6041 90.8629 10.7503 90.8629 9.62H88.8629C88.8629 10.9963 89.1261 12.2226 89.7181 13.2421L91.4477 12.2379ZM90.8629 9.62C90.8629 8.44372 91.0599 7.55146 91.3945 6.89286L89.6113 5.98713C89.0925 7.00854 88.8629 8.23628 88.8629 9.62H90.8629ZM91.3917 6.89829C91.7491 6.20516 92.2214 5.71809 92.806 5.39558L91.8398 3.64442C90.8777 4.17524 90.1367 4.96817 89.6141 5.98171L91.3917 6.89829ZM92.806 5.39558C93.4089 5.06291 94.1375 4.88 95.0229 4.88V2.88C93.8549 2.88 92.7835 3.12376 91.8398 3.64442L92.806 5.39558ZM95.0429 5C94.2295 5 93.4947 5.27445 92.9083 5.8406L94.2975 7.2794C94.4845 7.09888 94.7097 7 95.0429 7V5ZM92.8958 5.85289C92.2901 6.45857 92.0235 7.3062 91.9465 8.21556L93.9393 8.38444C93.9956 7.72046 94.169 7.4081 94.31 7.26711L92.8958 5.85289ZM92.9429 9.3H97.1229V7.3H92.9429V9.3ZM98.1227 8.28C98.1061 7.44817 97.8857 6.67772 97.3909 6.04436L95.8149 7.27564C95.9867 7.49561 96.1131 7.81849 96.1231 8.32L98.1227 8.28ZM97.4 6.05614C96.8262 5.29871 95.9663 5 95.0429 5V7C95.5328 7 95.7129 7.14129 95.8058 7.26386L97.4 6.05614Z" fill="white" fill-opacity="0.5"/>
<defs>
<filter id="filter0_i_343_34" x="0.0205078" y="0.719727" width="101.902" height="16.4805" filterUnits="userSpaceOnUse" color-interpolation-filters="sRGB">
<feFlood flood-opacity="0" result="BackgroundImageFix"/>
<feBlend mode="normal" in="SourceGraphic" in2="BackgroundImageFix" result="shape"/>
<feColorMatrix in="SourceAlpha" type="matrix" values="0 0 0 0 0 0 0 0 0 0 0 0 0 0 0 0 0 0 127 0" result="hardAlpha"/>
<feOffset dx="2" dy="2"/>
<feGaussianBlur stdDeviation="2"/>
<feComposite in2="hardAlpha" operator="arithmetic" k2="-1" k3="1"/>
<feColorMatrix type="matrix" values="0 0 0 0 0 0 0 0 0 0 0 0 0 0 0 0 0 0 0.25 0"/>
<feBlend mode="normal" in2="shape" result="effect1_innerShadow_343_34"/>
</filter>
</defs>
</svg>
